<?xml version="1.0" encoding="UTF-8"?>
<svg id="Ebene_1" data-name="Ebene 1" xmlns="http://www.w3.org/2000/svg" viewBox="0 0 291.97 121.89">
  <g>
    <path d="m74.45,62.33c0-3.15.54-6.05,1.61-8.7,1.07-2.65,2.56-4.94,4.47-6.88,1.91-1.94,4.18-3.44,6.81-4.49,2.64-1.05,5.5-1.58,8.58-1.58,4.58,0,8.58,1.11,11.99,3.33,3.41,2.22,5.88,5.34,7.42,9.34l-8.03,2c-.77-1.62-1.74-2.92-2.92-3.91-1.18-.99-2.47-1.72-3.89-2.18-1.42-.46-2.92-.7-4.5-.7-2.43,0-4.56.6-6.39,1.79-1.83,1.19-3.24,2.82-4.23,4.88-.99,2.06-1.49,4.43-1.49,7.09s.5,5.09,1.49,7.15c.99,2.06,2.4,3.68,4.23,4.85,1.83,1.17,3.95,1.76,6.39,1.76,1.62,0,3.17-.24,4.65-.73,1.48-.49,2.84-1.29,4.08-2.43,1.24-1.13,2.28-2.65,3.13-4.55l7.91,1.82c-1.62,4.49-4.16,7.9-7.61,10.25-3.45,2.34-7.52,3.52-12.23,3.52-3.08,0-5.94-.52-8.58-1.58-2.64-1.05-4.91-2.54-6.81-4.46-1.91-1.92-3.4-4.2-4.47-6.85-1.08-2.65-1.61-5.57-1.61-8.76Z" style="fill: #fff;"/>
    <path d="m152.88,48.93h-21.54v9.4h16.12v7.4h-16.12v10h21.54v7.82h-30.91v-42.44h30.91v7.82Z" style="fill: #fff;"/>
    <path d="m157.26,62.33c0-3.15.54-6.05,1.61-8.7,1.07-2.65,2.57-4.94,4.47-6.88,1.91-1.94,4.18-3.44,6.81-4.49,2.64-1.05,5.5-1.58,8.58-1.58,4.58,0,8.58,1.11,11.99,3.33,3.41,2.22,5.88,5.34,7.42,9.34l-8.03,2c-.77-1.62-1.74-2.92-2.92-3.91-1.18-.99-2.47-1.72-3.89-2.18-1.42-.46-2.92-.7-4.5-.7-2.43,0-4.56.6-6.39,1.79-1.83,1.19-3.23,2.82-4.23,4.88-.99,2.06-1.49,4.43-1.49,7.09s.5,5.09,1.49,7.15c.99,2.06,2.4,3.68,4.23,4.85,1.83,1.17,3.96,1.76,6.39,1.76,1.62,0,3.17-.24,4.65-.73,1.48-.49,2.84-1.29,4.08-2.43,1.24-1.13,2.28-2.65,3.13-4.55l7.91,1.82c-1.62,4.49-4.16,7.9-7.61,10.25-3.45,2.34-7.52,3.52-12.23,3.52-3.08,0-5.94-.52-8.58-1.58-2.64-1.05-4.91-2.54-6.81-4.46-1.91-1.92-3.4-4.2-4.47-6.85-1.08-2.65-1.61-5.57-1.61-8.76Z" style="fill: #fff;"/>
    <path d="m225.41,48.93h-2.13l-12.17,34.62h-9.67l15.39-42.44h15.21l15.33,42.44h-9.67l-12.29-34.62Zm-13.69,17.64h24.82v7.82h-24.82v-7.82Z" style="fill: #fff;"/>
    <path d="m268.12,41.11c4.54,0,8.49.88,11.83,2.64,3.35,1.76,5.95,4.24,7.82,7.46,1.87,3.21,2.8,6.94,2.8,11.19s-.93,7.95-2.8,11.13c-1.87,3.17-4.47,5.64-7.82,7.4s-7.29,2.64-11.83,2.64h-16.61v-42.44h16.61Zm-.49,34.62c4.26,0,7.55-1.19,9.89-3.58,2.33-2.38,3.5-5.64,3.5-9.76s-1.17-7.45-3.5-9.85c-2.33-2.4-5.63-3.61-9.89-3.61h-6.75v26.8h6.75Z" style="fill: #fff;"/>
  </g>
  <g>
    <path d="m54.08,10.68c-11.37,13.96-24.72,31.9-36.82,46.63-1.38,1.68-8.38,5.64-12.63,6.67l.34,4.02c5.11-1.96,9.66-4.95,13.27-8.73C31.12,43.88,52.59,14.61,55.78,12.3c15.02-10.87,26.3-.84,26.77-.68,1.21.53,27.97,21.28,27.97,21.28l8.98-3.71c-.1-.09-25.26-20.53-25.26-20.53-7.15-6.03-14.33-7.61-20.6-7.08-7.49.81-14.42,4.05-19.48,9.1h-.07Z" style="fill: #fff; fill-rule: evenodd;"/>
    <path d="m90.71,10.84c-13.9,18.09-32.38,42.68-37.61,47.1-22.18,18.71-46.99-3.73-46.99-3.73l-4.66,5.38c26.65,22.16,46.4,6.06,52.73.27,6.33-5.79,29.82-40.99,38.34-47.42,14.58-11,26.61-.63,27.11-.46,1.2.55,24.03,20.93,24.03,20.93l8.46-3.95-20.84-19.94c-7.22-6.22-14.51-7.89-20.9-7.4-7.56.73-14.59,3.97-19.67,9.08v.14Z" style="fill: #fff; fill-rule: evenodd;"/>
    <path d="m87.67,15.58l-36-.24v-1.01s36,.24,36,.24v1.01h0Zm-7.57,10.3l-36.61-.25v-1.01s36.62.25,36.62.25v1.01h0Zm-7.54,10.17h-37.18v-1.02h37.18v1.02h0Zm-8.14,10.38l-36.59-.17v-1.01s36.59.17,36.59.17v1.01h0Zm-8.85,10.29l-35.44-.17v-1.01s35.45.17,35.45.17v1.01Z" style="fill: #fff; fill-rule: evenodd;"/>
    <rect x="105.86" y="20.06" width="13.87" height="1.01" transform="translate(.52 43.8) rotate(-22.03)" style="fill: #fff;"/>
    <rect x="112.74" y="28.85" width="9.96" height="1.01" transform="translate(-2.4 46.39) rotate(-22.07)" style="fill: #fff;"/>
    <rect x="100.2" y="12.01" width="17.57" height="1.01" transform="translate(3.26 41.79) rotate(-22.02)" style="fill: #fff;"/>
  </g>
  <g>
    <path d="m84.91,96.22h-1l-7,19.1h-2.46l7.76-21.22h4.37l7.73,21.22h-2.46l-6.94-19.1Zm-6.67,11.4h12.37v2.12h-12.37v-2.12Z" style="fill: #fff;"/>
    <path d="m108.53,100.16h2.09v12.37c0,1.86-.41,3.45-1.24,4.77-.83,1.32-2.03,2.33-3.61,3.03-1.58.7-3.5,1.05-5.76,1.05l-.36-2.09c2.85-.04,5.01-.63,6.49-1.77,1.48-1.14,2.21-2.8,2.21-4.99v-.33l.24.06c-.47.89-1.16,1.65-2.09,2.29-.93.64-2.13.97-3.61.99-1.39,0-2.61-.32-3.65-.96-1.04-.64-1.85-1.54-2.43-2.71-.58-1.17-.86-2.55-.86-4.12s.29-2.95.86-4.11c.58-1.16,1.38-2.07,2.43-2.71,1.04-.65,2.26-.97,3.65-.97.91,0,1.72.14,2.43.41.71.27,1.31.64,1.82,1.09.5.46.92.97,1.24,1.53l.15-2.82Zm-10.13,7.58c0,1.74.45,3.12,1.35,4.14.9,1.02,2.12,1.53,3.65,1.53.93,0,1.77-.22,2.52-.67.75-.44,1.34-1.09,1.77-1.94.43-.85.65-1.87.65-3.06s-.22-2.21-.65-3.05c-.43-.84-1.03-1.49-1.77-1.94-.75-.45-1.59-.68-2.52-.68-1.52,0-2.73.52-3.64,1.55-.91,1.03-1.36,2.41-1.36,4.12Z" style="fill: #fff;"/>
    <path d="m116.87,97.13c-.47,0-.85-.15-1.15-.46-.3-.3-.46-.68-.46-1.12s.15-.85.46-1.15c.3-.3.69-.45,1.15-.45.42,0,.79.15,1.11.45.31.3.47.69.47,1.15s-.16.82-.47,1.12c-.31.3-.68.46-1.11.46Zm-1.15,3.03h2.24v15.16h-2.24v-15.16Z" style="fill: #fff;"/>
    <path d="m123.08,100.16h2.09l.12,2.15c.49-.75,1.12-1.33,1.91-1.74.79-.41,1.71-.62,2.76-.62,1.15,0,2.16.25,3.03.74.87.5,1.55,1.23,2.03,2.21.48.98.73,2.21.73,3.68v8.73h-2.27v-8.46c0-1.58-.34-2.77-1.02-3.59-.68-.82-1.65-1.23-2.93-1.23s-2.34.43-3.08,1.3c-.74.87-1.11,2.15-1.11,3.85v8.12h-2.27v-15.16Z" style="fill: #fff;"/>
    <path d="m151.79,100.16h2.09v12.37c0,1.86-.41,3.45-1.24,4.77-.83,1.32-2.03,2.33-3.61,3.03-1.58.7-3.5,1.05-5.76,1.05l-.36-2.09c2.85-.04,5.01-.63,6.49-1.77,1.48-1.14,2.21-2.8,2.21-4.99v-.33l.24.06c-.46.89-1.16,1.65-2.09,2.29-.93.64-2.13.97-3.61.99-1.39,0-2.61-.32-3.65-.96-1.04-.64-1.85-1.54-2.43-2.71-.58-1.17-.86-2.55-.86-4.12s.29-2.95.86-4.11c.58-1.16,1.38-2.07,2.43-2.71,1.04-.65,2.26-.97,3.65-.97.91,0,1.72.14,2.43.41.71.27,1.31.64,1.82,1.09.5.46.92.97,1.24,1.53l.15-2.82Zm-10.13,7.58c0,1.74.45,3.12,1.35,4.14.9,1.02,2.12,1.53,3.65,1.53.93,0,1.77-.22,2.52-.67.75-.44,1.34-1.09,1.77-1.94.43-.85.65-1.87.65-3.06s-.22-2.21-.65-3.05c-.43-.84-1.03-1.49-1.77-1.94-.75-.45-1.59-.68-2.52-.68-1.52,0-2.73.52-3.64,1.55-.91,1.03-1.36,2.41-1.36,4.12Z" style="fill: #fff;"/>
    <path d="m174.71,94.09c1.66,0,3.02.28,4.08.85,1.06.57,1.85,1.32,2.38,2.26.53.94.79,2,.79,3.17,0,.83-.14,1.62-.41,2.36-.27.75-.7,1.41-1.29,2-.59.59-1.33,1.05-2.24,1.39-.91.34-2,.52-3.27.52h-5.06v8.67h-2.43v-21.22h7.46Zm4.79,6.28c0-1.27-.37-2.28-1.12-3.03-.75-.75-1.97-1.12-3.67-1.12h-5.03v8.31h5.06c1.11,0,2.02-.17,2.71-.52.7-.34,1.21-.83,1.55-1.46.33-.63.5-1.35.5-2.18Zm-3.03,5.37l5.88,9.58h-2.76l-5.73-9.58h2.61Z" style="fill: #fff;"/>
    <path d="m192.32,115.53c-1.41,0-2.67-.34-3.77-1.03-1.1-.69-1.97-1.63-2.59-2.82-.63-1.19-.94-2.56-.94-4.09s.31-2.79.94-3.94c.63-1.15,1.49-2.06,2.58-2.71s2.33-.99,3.73-.99,2.6.3,3.68.91c1.08.61,1.92,1.45,2.53,2.52.61,1.07.89,2.29.85,3.67,0,.22-.01.45-.03.7-.02.24-.04.51-.06.79h-11.73c.04.95.27,1.79.7,2.52.42.73.99,1.3,1.68,1.71.7.41,1.49.62,2.38.62,1.17,0,2.17-.22,2.99-.67.82-.44,1.41-1.08,1.77-1.91l1.97.79c-.61,1.27-1.49,2.25-2.64,2.93-1.15.68-2.5,1.02-4.03,1.02Zm4.52-8.97c.02-.87-.17-1.64-.56-2.3-.39-.67-.94-1.19-1.65-1.58-.71-.38-1.53-.58-2.46-.58-.81,0-1.55.19-2.21.58-.67.38-1.22.91-1.65,1.59-.43.68-.69,1.44-.77,2.29h9.31Z" style="fill: #fff;"/>
    <path d="m204.3,110.68c.12.61.34,1.11.67,1.5.32.39.74.69,1.26.89.52.2,1.12.3,1.8.3,1.07,0,1.88-.21,2.44-.62.56-.41.83-.93.83-1.56,0-.52-.17-.95-.5-1.27-.33-.32-.77-.59-1.32-.8-.55-.21-1.15-.4-1.82-.56-.53-.12-1.09-.27-1.7-.44-.61-.17-1.18-.41-1.73-.71-.55-.3-.99-.7-1.33-1.18-.34-.48-.52-1.12-.52-1.91,0-.87.24-1.63.71-2.29.47-.66,1.13-1.17,1.97-1.53.84-.36,1.8-.55,2.9-.55,1.25,0,2.37.27,3.35.82.98.55,1.66,1.39,2.05,2.55l-2.12.73c-.14-.53-.4-.93-.77-1.21-.37-.28-.79-.47-1.24-.58-.45-.1-.9-.15-1.35-.15-.91,0-1.64.18-2.2.53-.56.35-.83.88-.83,1.59,0,.38.09.7.27.96.18.25.43.46.76.62.32.16.71.3,1.15.41.44.11.93.24,1.46.38.59.14,1.18.32,1.79.53.61.21,1.17.48,1.7.82.53.33.96.76,1.29,1.27.33.52.5,1.16.5,1.92,0,.89-.24,1.66-.73,2.32-.48.66-1.16,1.17-2.02,1.53-.86.36-1.85.55-2.99.55-1.56,0-2.84-.35-3.87-1.05-1.02-.7-1.7-1.72-2.05-3.08l2.18-.73Z" style="fill: #fff;"/>
    <path d="m223.82,115.53c-1.41,0-2.67-.34-3.77-1.03-1.1-.69-1.97-1.63-2.59-2.82-.63-1.19-.94-2.56-.94-4.09s.31-2.79.94-3.94c.63-1.15,1.49-2.06,2.58-2.71s2.33-.99,3.73-.99,2.6.3,3.68.91c1.08.61,1.92,1.45,2.53,2.52s.89,2.29.85,3.67c0,.22-.01.45-.03.7-.02.24-.04.51-.06.79h-11.73c.04.95.27,1.79.7,2.52.42.73.99,1.3,1.68,1.71.7.41,1.49.62,2.38.62,1.17,0,2.17-.22,2.99-.67.82-.44,1.41-1.08,1.77-1.91l1.97.79c-.61,1.27-1.49,2.25-2.64,2.93-1.15.68-2.5,1.02-4.03,1.02Zm4.52-8.97c.02-.87-.17-1.64-.56-2.3-.39-.67-.94-1.19-1.65-1.58-.71-.38-1.53-.58-2.46-.58-.81,0-1.55.19-2.21.58-.67.38-1.22.91-1.65,1.59-.43.68-.69,1.44-.77,2.29h9.31Z" style="fill: #fff;"/>
    <path d="m244.04,115.32l-.18-2.73c-.42.93-1.05,1.65-1.88,2.17-.83.52-1.88.77-3.15.77-1.09,0-2.02-.17-2.79-.52-.77-.34-1.36-.83-1.77-1.47-.41-.64-.62-1.39-.62-2.26,0-1.27.47-2.32,1.43-3.14.95-.82,2.32-1.32,4.12-1.5l4.67-.52v-1.21c0-.85-.31-1.53-.94-2.05-.63-.52-1.48-.77-2.55-.77s-1.93.24-2.62.73c-.7.48-1.18,1.18-1.44,2.09l-2.06-.73c.4-1.33,1.15-2.37,2.23-3.12,1.08-.75,2.4-1.12,3.96-1.12,1.8,0,3.2.46,4.2,1.38,1,.92,1.5,2.17,1.5,3.74v10.25h-2.09Zm-.18-7.25l-4.7.55c-1.01.12-1.78.4-2.3.83-.53.43-.79,1.01-.79,1.71s.26,1.27.77,1.7c.52.42,1.26.64,2.23.64,1.11,0,2.02-.22,2.73-.67.71-.44,1.23-1.05,1.56-1.8.33-.76.5-1.58.5-2.47v-.48Z" style="fill: #fff;"/>
    <path d="m250.56,100.16h2.09l.12,2.21c.4-.55.89-1.01,1.47-1.39.58-.38,1.21-.65,1.91-.8.7-.15,1.44-.16,2.23-.01v2.27c-.85-.16-1.61-.16-2.29,0-.68.16-1.26.47-1.74.91-.49.44-.86,1.01-1.12,1.68-.26.68-.39,1.46-.39,2.35v7.94h-2.27v-15.16Z" style="fill: #fff;"/>
    <path d="m267.63,115.53c-1.48,0-2.77-.32-3.88-.97-1.11-.65-1.98-1.55-2.59-2.71-.62-1.16-.92-2.51-.92-4.05s.31-2.93.92-4.11c.62-1.18,1.48-2.1,2.59-2.76,1.11-.66,2.41-.99,3.88-.99,1.56,0,2.92.36,4.09,1.08,1.17.72,2.02,1.71,2.55,2.99l-2.09.73c-.3-.81-.85-1.45-1.65-1.93-.8-.47-1.72-.71-2.77-.71s-1.92.23-2.68.7c-.76.47-1.34,1.12-1.76,1.97-.41.85-.62,1.85-.62,3,0,1.7.45,3.06,1.36,4.08.91,1.02,2.12,1.53,3.64,1.53,1.03,0,1.95-.23,2.76-.7.81-.46,1.4-1.09,1.79-1.88l2.06.73c-.55,1.25-1.41,2.23-2.58,2.94-1.17.71-2.54,1.06-4.09,1.06Z" style="fill: #fff;"/>
    <path d="m278.03,93.49h2.27v8.73c.49-.73,1.14-1.29,1.97-1.68.83-.39,1.76-.59,2.79-.59,1.11,0,2.1.25,2.97.76.87.51,1.55,1.25,2.05,2.24.5.99.74,2.22.74,3.7v8.67h-2.43v-8.4c0-1.58-.33-2.78-1-3.62-.67-.84-1.64-1.26-2.91-1.26s-2.34.44-3.08,1.33c-.74.89-1.11,2.18-1.11,3.88v8.06h-2.27v-21.83Z" style="fill: #fff;"/>
  </g>
</svg>